<?xml version="1.0" encoding="utf-8"?>
<!-- Generator: Adobe Illustrator 15.0.0, SVG Export Plug-In . SVG Version: 6.00 Build 0)  -->
<!DOCTYPE svg PUBLIC "-//W3C//DTD SVG 1.1//EN" "http://www.w3.org/Graphics/SVG/1.1/DTD/svg11.dtd">
<svg version="1.1" id="svg4369" xmlns:svg="http://www.w3.org/2000/svg"
	 xmlns="http://www.w3.org/2000/svg" xmlns:xlink="http://www.w3.org/1999/xlink" x="0px" y="0px" width="1024px" height="364px"
	 viewBox="0 0 1024 364" enable-background="new 0 0 1024 364" xml:space="preserve">
<path id="path4340" fill="#0D933A" d="M111.541,62.231c-10.434,0-19.385,2.204-26.855,6.696c-4.413,2.635-8.729,6.782-12.888,12.384
	V66.407H38.605v168.479h33.192v-61.056c10.014,11.542,23.503,17.352,40.392,17.352c14.006,0,26.104-3.768,36.289-11.231
	c9.539-6.961,16.22-16.01,20.088-27.144c2.301,6.572,5.596,12.517,9.936,17.856c11.203,13.66,26.012,20.52,44.424,20.52
	c16.975,0,30.958-6.903,41.904-20.735v16.488h33.192V73.606l39.672,110.521l-11.664,33.407c11.912-2.537,23.961,1.731,31.752,10.439
	l60.768-161.567H383.27l-28.152,71.64l-24.408-71.64h-32.688h-2.592h-30.6v15.264c-4.839-5.685-9.542-9.884-14.04-12.601
	c-7.471-4.495-15.981-6.767-25.488-6.767c-11.46,0-21.73,2.822-30.888,8.424c-9.083,5.432-16.103,12.778-21.025,22.031
	c-1.796,3.333-3.289,6.783-4.536,10.297c-4.242-12.681-12.165-22.983-23.832-30.816C135.091,65.534,123.931,62.231,111.541,62.231z
	 M104.917,90.095c9.244,0,16.931,3.424,23.04,10.296c6.112,6.877,9.145,16.047,9.145,27.504c0,8.821-2.212,16.451-6.625,22.896
	c-6.198,9.078-15.02,13.608-26.567,13.608c-9.332,0-17.013-3.2-23.04-9.648c-6.025-6.451-9.072-15.281-9.072-26.568
	c0-9.507,2.16-17.522,6.48-23.976C84.641,94.79,93.543,90.095,104.917,90.095z M232.213,90.311c10.777,0,19.224,4.049,25.416,12.024
	c5.092,6.622,7.704,14.673,7.704,24.264c0,9.59-2.88,18.049-8.568,25.344c-6.532,8.317-14.826,12.456-24.84,12.456
	c-8.32,0-15.442-2.978-21.384-9c-7.042-7.044-10.512-16.336-10.512-27.792c0-9.587,2.526-17.985,7.704-25.2
	C213.588,94.343,221.77,90.311,232.213,90.311z M329.701,229.56c-2.516,0.016-5.111,0.348-7.632,1.151
	c-13.462,4.289-20.846,18.714-16.561,32.185c4.286,13.461,18.651,20.845,32.112,16.56c13.461-4.289,20.918-18.65,16.632-32.112
	C350.773,236.406,340.604,229.488,329.701,229.56z M112.693,257.999c-2.005,0.014-4.039,0.297-6.048,0.936
	c-10.731,3.416-16.659,14.898-13.248,25.632c3.418,10.73,14.832,16.671,25.56,13.248c10.722-3.411,16.661-14.903,13.248-25.631
	C129.425,263.467,121.38,257.94,112.693,257.999z M260.941,267.648c-3.477,0.021-7.026,0.545-10.512,1.654
	c-18.599,5.925-28.812,25.836-22.896,44.426c5.926,18.605,25.752,28.821,44.352,22.895c18.591-5.918,28.893-25.747,22.968-44.352
	C290.049,277.164,276.007,267.548,260.941,267.648L260.941,267.648z M175.909,282.336c-2.498,0.016-5.054,0.426-7.56,1.224
	c-13.355,4.253-20.742,18.533-16.489,31.896c4.249,13.358,18.544,20.736,31.896,16.487c13.366-4.259,20.745-18.538,16.488-31.896
	C196.786,289.189,186.733,282.263,175.909,282.336L175.909,282.336z"/>
<path id="path4350" fill="#004D86" d="M609.479,62.813h-33.227V37.44h33.227V62.813z M528.805,17.334v62.441
	c-5.939-6.284-11.798-10.647-17.568-13.113c-7.125-2.969-14.549-4.455-22.277-4.455c-15.442,0-29.105,5.515-40.981,16.548
	c-12.906,11.967-19.348,28.308-19.348,49.009c0,18.164,4.959,32.884,14.886,44.173c11.201,12.814,26.14,19.218,44.807,19.218
	c9.85,0,18.551-2.077,26.099-6.234c4.838-2.633,9.63-7.212,14.383-13.745v15.783h33.226V17.334H528.805z M520.912,152.208
	c-6.194,8.147-14.338,12.22-24.442,12.22c-8.821,0-16.378-3.223-22.657-9.671c-6.618-6.707-9.931-15.661-9.931-26.861
	c0-8.827,2.169-16.589,6.498-23.303c6.275-9.668,15.057-14.509,26.347-14.509c9.334,0,17.016,3.565,23.042,10.696
	c6.032,7.044,9.036,15.996,9.036,26.859C528.805,137.143,526.179,145.333,520.912,152.208 M609.479,186.961h-33.227V66.407h33.227
	V186.961z M945.337,93.649v57.793c0,3.056,0.717,5.092,2.157,6.111c1.615,1.103,4.028,1.656,7.26,1.656h22.282v27.751h-43.029
	c-7.728,0-13.45-1.909-17.188-5.725c-3.14-3.318-4.71-9.081-4.71-17.315V23.092h33.228v42.679h31.699v27.878H945.337L945.337,93.649
	z M908.934,66.407h-38.318l-33.734,46.209V23.541h-33.223v82.616c-2.406-7.874-6.204-14.974-11.42-21.292
	c-12.473-15.105-29.408-22.657-50.794-22.657c-12.563,0-23.767,2.799-33.608,8.398c-4.662,2.658-8.788,5.854-12.406,9.562v-14.15
	h-37.834c-7.044,0.639-13.337,2.384-18.934,5.242c-4.672,2.376-9.006,5.913-12.96,10.596c-3.978,4.688-5.953,11.163-5.953,19.406
	v85.506h33.249v-81.455c0.533-1.904,1.519-3.643,2.97-5.239c1.256-1.264,3.016-2.459,5.271-3.568
	c2.256-1.111,5.183-1.665,8.784-1.665h15.086c-4.87,9.726-7.313,20.278-7.313,31.654c0,17.992,5.429,32.714,16.292,44.174
	c12.901,13.659,29.362,20.488,49.393,20.488c14.936,0,28.391-4.66,40.354-14c7.386-5.769,13.449-13.369,18.201-22.79l-30.298-8.398
	c-2.119,3.992-5.005,7.212-8.657,9.674c-5.854,3.986-12.266,5.982-19.219,5.982c-10.017,0-18.157-3.646-24.442-10.947
	c-3.648-4.155-6.025-9.546-7.127-16.165h91.364v52.448h33.224v-50.032l33.607,50.032h38.445l-41.121-62.758L908.934,66.407
	L908.934,66.407z M712.166,115.546c1.269-6.362,3.519-11.457,6.747-15.279c5.771-6.699,13.407-10.054,22.917-10.054
	c9.928,0,17.901,3.355,23.93,10.054c3.479,3.822,5.769,8.917,6.874,15.279H712.166L712.166,115.546z"/>
</svg>
